<svg width="40" height="40" viewBox="0 0 40 40" fill="none" xmlns="http://www.w3.org/2000/svg">
<g id="&#195;&#141;cones/A&#195;&#167;&#195;&#181;es/Escudo/shield on">
<path id="Vector (Stroke)" fill-rule="evenodd" clip-rule="evenodd" d="M19.4148 1.77287C19.7921 1.63138 20.2079 1.63138 20.5852 1.77287L33.9185 6.77287C34.569 7.01681 35 7.63867 35 8.33341V20.0001C35 25.7441 31.1971 30.3339 27.7642 33.3377C26.0127 34.8702 24.2691 36.0681 22.9667 36.8822C22.3137 37.2903 21.7672 37.6046 21.3801 37.8189C21.1865 37.9261 21.0324 38.0084 20.9245 38.0651C20.8705 38.0934 20.828 38.1154 20.7979 38.1308L20.7621 38.149L20.7513 38.1545L20.7477 38.1563C20.7472 38.1565 20.7454 38.1575 20 36.6667C19.2546 38.1575 19.2542 38.1572 19.2536 38.1569L19.2487 38.1545L19.2379 38.149L19.2021 38.1308C19.172 38.1154 19.1295 38.0934 19.0755 38.0651C18.9676 38.0084 18.8135 37.9261 18.6199 37.8189C18.2328 37.6046 17.6863 37.2903 17.0333 36.8822C15.7309 36.0681 13.9873 34.8702 12.2358 33.3377C8.80291 30.3339 5 25.7441 5 20.0001V8.33341C5 7.63867 5.43095 7.01681 6.08146 6.77287L19.4148 1.77287ZM20 36.6667L19.2536 38.1569C19.7228 38.3916 20.2761 38.3921 20.7454 38.1575L20 36.6667ZM20 34.7713C20.3194 34.5903 20.7278 34.3506 21.2 34.0555C22.3976 33.307 23.9873 32.2132 25.5692 30.8291C28.8029 27.9996 31.6667 24.256 31.6667 20.0001V9.48842L20 5.11342L8.33333 9.48842V20.0001C8.33333 24.256 11.1971 27.9996 14.4308 30.8291C16.0127 32.2132 17.6024 33.307 18.8 34.0555C19.2722 34.3506 19.6806 34.5903 20 34.7713Z" fill="#303030"/>
</g>
</svg>
